<svg xmlns="http://www.w3.org/2000/svg" xmlns:xlink="http://www.w3.org/1999/xlink" width="1250" height="730" viewBox="1962 523 1250 730">
  <defs>
    <style>
      .cls-1 {
        clip-path: url(#clip-Web_1920_1);
      }

      .cls-2, .cls-7 {
        fill: none;
      }

      .cls-2, .cls-3 {
        stroke: #1ae74b;
      }

      .cls-2 {
        stroke-width: 5px;
      }

      .cls-3, .cls-4 {
        fill: #1ae74b;
      }

      .cls-5 {
        fill: #707070;
        font-size: 30px;
        font-family: SegoeUI, Segoe UI;
      }

      .cls-6, .cls-8 {
        stroke: none;
      }

      .cls-8 {
        fill: #1ae74b;
      }

      .cls-9 {
        fill: #fff;
      }
    </style>
    <clipPath id="clip-Web_1920_1">
      <rect x="1962" y="523" width="1250" height="730"/>
    </clipPath>
  </defs>
  <g id="Web_1920_1" data-name="Web 1920 – 1" class="cls-1">
    <rect class="cls-9" x="1962" y="523" width="1250" height="730"/>
    <line id="Line_1" data-name="Line 1" class="cls-2" y1="618" x2="591.5" transform="translate(1995.553 573.5)"/>
    <line id="Line_2" data-name="Line 2" class="cls-2" x1="590.5" y1="615" transform="translate(2587.053 573.5)"/>
    <g id="Ellipse_1" data-name="Ellipse 1" class="cls-3" transform="translate(2760.053 757)">
      <circle class="cls-6" cx="17.5" cy="17.5" r="17.5"/>
      <circle class="cls-7" cx="17.5" cy="17.5" r="17"/>
    </g>
    <g id="Ellipse_4" data-name="Ellipse 4" class="cls-3" transform="translate(2967.053 969)">
      <circle class="cls-6" cx="17.5" cy="17.5" r="17.5"/>
      <circle class="cls-7" cx="17.5" cy="17.5" r="17"/>
    </g>
    <g id="Ellipse_3" data-name="Ellipse 3" class="cls-3" transform="translate(2174.053 969)">
      <circle class="cls-6" cx="17.5" cy="17.5" r="17.5"/>
      <circle class="cls-7" cx="17.5" cy="17.5" r="17"/>
    </g>
    <g id="Ellipse_2" data-name="Ellipse 2" class="cls-3" transform="translate(2378.053 757)">
      <circle class="cls-6" cx="17.5" cy="17.5" r="17.5"/>
      <circle class="cls-7" cx="17.5" cy="17.5" r="17"/>
    </g>
    <g id="Ellipse_7" data-name="Ellipse 7" class="cls-3" transform="translate(2569.5 556)">
      <circle class="cls-6" cx="17.5" cy="17.5" r="17.5"/>
      <circle class="cls-7" cx="17.5" cy="17.5" r="17"/>
    </g>
    <g id="Ellipse_5" data-name="Ellipse 5" class="cls-3" transform="translate(2413.053 969)">
      <circle class="cls-6" cx="17.5" cy="17.5" r="17.5"/>
      <circle class="cls-7" cx="17.5" cy="17.5" r="17"/>
    </g>
    <g id="Ellipse_6" data-name="Ellipse 6" class="cls-3" transform="translate(2725.053 969)">
      <circle class="cls-6" cx="17.5" cy="17.5" r="17.5"/>
      <circle class="cls-7" cx="17.5" cy="17.5" r="17"/>
    </g>
    <g id="Path_1" data-name="Path 1" class="cls-4" transform="translate(1967 1181.405) rotate(-14)">
      <path class="cls-6" d="M 34.12255477905273 29.03467559814453 L 0.877444326877594 29.03467559814453 L 17.5 0.9808552265167236 L 34.12255477905273 29.03467559814453 Z"/>
      <path class="cls-8" d="M 17.5 1.961713790893555 L 1.754890441894531 28.53467559814453 L 33.24510955810547 28.53467559814453 L 17.5 1.961713790893555 M 17.5 -3.814697265625e-06 L 35 29.53467559814453 L 0 29.53467559814453 L 17.5 -3.814697265625e-06 Z"/>
    </g>
    <g id="Path_7" data-name="Path 7" class="cls-4" transform="translate(2399.732 733.048) rotate(-13)">
      <path class="cls-6" d="M 34.12255477905273 29.03467559814453 L 0.877444326877594 29.03467559814453 L 17.5 0.9808552265167236 L 34.12255477905273 29.03467559814453 Z"/>
      <path class="cls-8" d="M 17.5 1.961713790893555 L 1.754890441894531 28.53467559814453 L 33.24510955810547 28.53467559814453 L 17.5 1.961713790893555 M 17.5 -3.814697265625e-06 L 35 29.53467559814453 L 0 29.53467559814453 L 17.5 -3.814697265625e-06 Z"/>
    </g>
    <g id="Path_9" data-name="Path 9" class="cls-4" transform="translate(2196.732 945.048) rotate(-13)">
      <path class="cls-6" d="M 34.12255477905273 29.03467559814453 L 0.877444326877594 29.03467559814453 L 17.5 0.9808552265167236 L 34.12255477905273 29.03467559814453 Z"/>
      <path class="cls-8" d="M 17.5 1.961713790893555 L 1.754890441894531 28.53467559814453 L 33.24510955810547 28.53467559814453 L 17.5 1.961713790893555 M 17.5 -3.814697265625e-06 L 35 29.53467559814453 L 0 29.53467559814453 L 17.5 -3.814697265625e-06 Z"/>
    </g>
    <g id="Path_10" data-name="Path 10" class="cls-4" transform="translate(2428.169 925.704) rotate(50)">
      <path class="cls-6" d="M 34.12255477905273 29.03467559814453 L 0.877444326877594 29.03467559814453 L 17.5 0.9808552265167236 L 34.12255477905273 29.03467559814453 Z"/>
      <path class="cls-8" d="M 17.5 1.961713790893555 L 1.754890441894531 28.53467559814453 L 33.24510955810547 28.53467559814453 L 17.5 1.961713790893555 M 17.5 -3.814697265625e-06 L 35 29.53467559814453 L 0 29.53467559814453 L 17.5 -3.814697265625e-06 Z"/>
    </g>
    <g id="Path_8" data-name="Path 8" class="cls-4" transform="matrix(0.966, 0.259, -0.259, 0.966, 2741.024, 723.144)">
      <path class="cls-6" d="M 34.12255477905273 29.03467559814453 L 0.877444326877594 29.03467559814453 L 17.5 0.9808552265167236 L 34.12255477905273 29.03467559814453 Z"/>
      <path class="cls-8" d="M 17.5 1.961713790893555 L 1.754890441894531 28.53467559814453 L 33.24510955810547 28.53467559814453 L 17.5 1.961713790893555 M 17.5 -3.814697265625e-06 L 35 29.53467559814453 L 0 29.53467559814453 L 17.5 -3.814697265625e-06 Z"/>
    </g>
    <g id="Path_11" data-name="Path 11" class="cls-4" transform="translate(2761.371 926.291) rotate(71)">
      <path class="cls-6" d="M 34.12255477905273 29.03467559814453 L 0.877444326877594 29.03467559814453 L 17.5 0.9808552265167236 L 34.12255477905273 29.03467559814453 Z"/>
      <path class="cls-8" d="M 17.5 1.961713790893555 L 1.754890441894531 28.53467559814453 L 33.24510955810547 28.53467559814453 L 17.5 1.961713790893555 M 17.5 -3.814697265625e-06 L 35 29.53467559814453 L 0 29.53467559814453 L 17.5 -3.814697265625e-06 Z"/>
    </g>
    <g id="Path_12" data-name="Path 12" class="cls-4" transform="translate(2984.553 962.522) rotate(132)">
      <path class="cls-6" d="M 34.12255477905273 29.03467559814453 L 0.877444326877594 29.03467559814453 L 17.5 0.9808552265167236 L 34.12255477905273 29.03467559814453 Z"/>
      <path class="cls-8" d="M 17.5 1.961713790893555 L 1.754890441894531 28.53467559814453 L 33.24510955810547 28.53467559814453 L 17.5 1.961713790893555 M 17.5 -3.814697265625e-06 L 35 29.53467559814453 L 0 29.53467559814453 L 17.5 -3.814697265625e-06 Z"/>
    </g>
    <g id="Path_3" data-name="Path 3" class="cls-4" transform="translate(2198.944 1208.096) rotate(-66)">
      <path class="cls-6" d="M 34.12255477905273 29.03467559814453 L 0.877444326877594 29.03467559814453 L 17.5 0.9808552265167236 L 34.12255477905273 29.03467559814453 Z"/>
      <path class="cls-8" d="M 17.5 1.961713790893555 L 1.754890441894531 28.53467559814453 L 33.24510955810547 28.53467559814453 L 17.5 1.961713790893555 M 17.5 -3.814697265625e-06 L 35 29.53467559814453 L 0 29.53467559814453 L 17.5 -3.814697265625e-06 Z"/>
    </g>
    <g id="Path_13" data-name="Path 13" class="cls-4" transform="translate(2371.063 1202.422) rotate(-51)">
      <path class="cls-6" d="M 34.12255477905273 29.03467559814453 L 0.877444326877594 29.03467559814453 L 17.5 0.9808552265167236 L 34.12255477905273 29.03467559814453 Z"/>
      <path class="cls-8" d="M 17.5 1.961713790893555 L 1.754890441894531 28.53467559814453 L 33.24510955810547 28.53467559814453 L 17.5 1.961713790893555 M 17.5 -3.814697265625e-06 L 35 29.53467559814453 L 0 29.53467559814453 L 17.5 -3.814697265625e-06 Z"/>
    </g>
    <g id="Path_4" data-name="Path 4" class="cls-4" transform="translate(2440.944 1208.096) rotate(-66)">
      <path class="cls-6" d="M 34.12255477905273 29.03467559814453 L 0.877444326877594 29.03467559814453 L 17.5 0.9808552265167236 L 34.12255477905273 29.03467559814453 Z"/>
      <path class="cls-8" d="M 17.5 1.961713790893555 L 1.754890441894531 28.53467559814453 L 33.24510955810547 28.53467559814453 L 17.5 1.961713790893555 M 17.5 -3.814697265625e-06 L 35 29.53467559814453 L 0 29.53467559814453 L 17.5 -3.814697265625e-06 Z"/>
    </g>
    <g id="Path_5" data-name="Path 5" class="cls-4" transform="translate(2680.074 1201.522) rotate(-51)">
      <path class="cls-6" d="M 34.12255477905273 29.03467559814453 L 0.877444326877594 29.03467559814453 L 17.5 0.9808552265167236 L 34.12255477905273 29.03467559814453 Z"/>
      <path class="cls-8" d="M 17.5 1.961713790893555 L 1.754890441894531 28.53467559814453 L 33.24510955810547 28.53467559814453 L 17.5 1.961713790893555 M 17.5 -3.814697265625e-06 L 35 29.53467559814453 L 0 29.53467559814453 L 17.5 -3.814697265625e-06 Z"/>
    </g>
    <g id="Path_6" data-name="Path 6" class="cls-4" transform="translate(2927.074 1199.322) rotate(-51)">
      <path class="cls-6" d="M 34.12255477905273 29.03467559814453 L 0.877444326877594 29.03467559814453 L 17.5 0.9808552265167236 L 34.12255477905273 29.03467559814453 Z"/>
      <path class="cls-8" d="M 17.5 1.961713790893555 L 1.754890441894531 28.53467559814453 L 33.24510955810547 28.53467559814453 L 17.5 1.961713790893555 M 17.5 -3.814697265625e-06 L 35 29.53467559814453 L 0 29.53467559814453 L 17.5 -3.814697265625e-06 Z"/>
    </g>
    <g id="Path_14" data-name="Path 14" class="cls-4" transform="matrix(0.342, -0.94, 0.94, 0.342, 2754.969, 1210.409)">
      <path class="cls-6" d="M 34.12255477905273 29.03467559814453 L 0.877444326877594 29.03467559814453 L 17.5 0.9808552265167236 L 34.12255477905273 29.03467559814453 Z"/>
      <path class="cls-8" d="M 17.5 1.961713790893555 L 1.754890441894531 28.53467559814453 L 33.24510955810547 28.53467559814453 L 17.5 1.961713790893555 M 17.5 -3.814697265625e-06 L 35 29.53467559814453 L 0 29.53467559814453 L 17.5 -3.814697265625e-06 Z"/>
    </g>
    <line id="Line_3" data-name="Line 3" class="cls-2" x2="70" y2="417" transform="translate(2395.553 774.5)"/>
    <line id="Line_5" data-name="Line 5" class="cls-2" x1="70" y2="417" transform="translate(2707.553 774.5)"/>
    <line id="Line_4" data-name="Line 4" class="cls-2" x2="31" y2="205" transform="translate(2191.553 986.5)"/>
    <line id="Line_7" data-name="Line 7" class="cls-2" x1="31" y2="205" transform="translate(2399 992.215)"/>
    <line id="Line_6" data-name="Line 6" class="cls-2" x1="31" y2="205" transform="translate(2953.553 983)"/>
    <line id="Line_8" data-name="Line 8" class="cls-2" x2="31" y2="205" transform="translate(2746.553 986.5)"/>
    <g id="Path_2" data-name="Path 2" class="cls-4" transform="matrix(0.956, 0.292, -0.292, 0.956, 3173.188, 1172.122)">
      <path class="cls-6" d="M 34.12255477905273 29.03467559814453 L 0.877444326877594 29.03467559814453 L 17.5 0.9808552265167236 L 34.12255477905273 29.03467559814453 Z"/>
      <path class="cls-8" d="M 17.5 1.961713790893555 L 1.754890441894531 28.53467559814453 L 33.24510955810547 28.53467559814453 L 17.5 1.961713790893555 M 17.5 -3.814697265625e-06 L 35 29.53467559814453 L 0 29.53467559814453 L 17.5 -3.814697265625e-06 Z"/>
    </g>
    <text id="Con_đầu" data-name="Con đầu" class="cls-5" transform="translate(2632 565)"><tspan x="0" y="0">Con đầu</tspan></text>
    <text id="Con_thứ_2" data-name="Con thứ 2" class="cls-5" transform="translate(2804 753)"><tspan x="0" y="0">Con thứ 2</tspan></text>
    <text id="Con_thứ_3" data-name="Con thứ 3" class="cls-5" transform="translate(3016 963)"><tspan x="0" y="0">Con thứ 3</tspan></text>
    <text id="T" class="cls-5" transform="translate(2689 650)"><tspan x="0" y="0">T</tspan></text>
    <text id="T-2" data-name="T" class="cls-5" transform="translate(2891 860)"><tspan x="0" y="0">T</tspan></text>
    <text id="T-3" data-name="T" class="cls-5" transform="translate(3103 1083)"><tspan x="0" y="0">T</tspan></text>
    <text id="G" class="cls-5" transform="translate(2474 655)"><tspan x="0" y="0">G</tspan></text>
    <text id="G-2" data-name="G" class="cls-5" transform="translate(2260 865)"><tspan x="0" y="0">G</tspan></text>
    <text id="G-3" data-name="G" class="cls-5" transform="translate(2058 1088)"><tspan x="0" y="0">G</tspan></text>
    <text id="T-4" data-name="T" class="cls-5" transform="translate(2430 870)"><tspan x="0" y="0">T</tspan></text>
    <text id="T-5" data-name="T" class="cls-5" transform="translate(2225 1093)"><tspan x="0" y="0">T</tspan></text>
    <text id="G-4" data-name="G" class="cls-5" transform="translate(2378 1098)"><tspan x="0" y="0">G</tspan></text>
    <text id="T-6" data-name="T" class="cls-5" transform="translate(2466 1093)"><tspan x="0" y="0">T</tspan></text>
    <text id="G-5" data-name="G" class="cls-5" transform="translate(2725 870)"><tspan x="0" y="0">G</tspan></text>
    <text id="G-6" data-name="G" class="cls-5" transform="translate(2694 1093)"><tspan x="0" y="0">G</tspan></text>
    <text id="T-7" data-name="T" class="cls-5" transform="translate(2786 1095)"><tspan x="0" y="0">T</tspan></text>
    <text id="G-7" data-name="G" class="cls-5" transform="translate(2939 1103)"><tspan x="0" y="0">G</tspan></text>
  </g>
</svg>
