<svg width="1351" height="1120" xmlns="http://www.w3.org/2000/svg" xmlns:xlink="http://www.w3.org/1999/xlink" overflow="hidden"><defs><clipPath id="clip0"><rect x="623" y="487" width="1351" height="1120"/></clipPath><clipPath id="clip1"><rect x="1207" y="874" width="331" height="331"/></clipPath><clipPath id="clip2"><rect x="1207" y="874" width="331" height="331"/></clipPath><clipPath id="clip3"><rect x="1207" y="874" width="331" height="331"/></clipPath><clipPath id="clip4"><rect x="935" y="1277" width="330" height="331"/></clipPath><clipPath id="clip5"><rect x="935" y="1277" width="330" height="331"/></clipPath><clipPath id="clip6"><rect x="935" y="1277" width="330" height="331"/></clipPath><clipPath id="clip7"><rect x="622" y="885" width="331" height="331"/></clipPath><clipPath id="clip8"><rect x="622" y="885" width="331" height="331"/></clipPath><clipPath id="clip9"><rect x="622" y="885" width="331" height="331"/></clipPath><clipPath id="clip10"><rect x="925" y="487" width="331" height="331"/></clipPath><clipPath id="clip11"><rect x="925" y="487" width="331" height="331"/></clipPath><clipPath id="clip12"><rect x="925" y="487" width="331" height="331"/></clipPath><clipPath id="clip13"><rect x="1520" y="511" width="253" height="252"/></clipPath><clipPath id="clip14"><rect x="1520" y="511" width="253" height="252"/></clipPath><clipPath id="clip15"><rect x="1520" y="511" width="253" height="252"/></clipPath><clipPath id="clip16"><rect x="1523" y="1307" width="263" height="262"/></clipPath><clipPath id="clip17"><rect x="1523" y="1307" width="263" height="262"/></clipPath><clipPath id="clip18"><rect x="1523" y="1307" width="263" height="262"/></clipPath><clipPath id="clip19"><rect x="1745" y="929" width="230" height="229"/></clipPath><clipPath id="clip20"><rect x="1745" y="929" width="230" height="229"/></clipPath><clipPath id="clip21"><rect x="1745" y="929" width="230" height="229"/></clipPath></defs><g clip-path="url(#clip0)" transform="translate(-623 -487)"><g clip-path="url(#clip1)"><g clip-path="url(#clip2)"><g clip-path="url(#clip3)"><path d="M1343.78 1019.75 1353.41 1010.13C1348.59 1004.97 1345.5 998.094 1345.5 990.531 1345.5 982.969 1348.59 976.094 1353.41 970.938L1343.78 961.313C1336.22 968.875 1331.75 979.188 1331.75 990.531 1331.75 1001.88 1336.22 1012.19 1343.78 1019.75Z"/><path d="M1324.53 1039 1334.16 1029.38C1324.19 1019.41 1318 1005.66 1318 990.531 1318 975.406 1324.19 961.656 1334.16 951.688L1324.53 942.063C1311.81 954.438 1304.25 971.625 1304.25 990.531 1304.25 1009.44 1311.81 1026.63 1324.53 1039Z"/><path d="M1314.56 1048.97C1299.78 1034.19 1290.5 1013.56 1290.5 990.531 1290.5 967.5 1299.78 947.219 1314.56 932.094L1304.94 922.469C1287.41 940 1276.75 964.063 1276.75 990.531 1276.75 1017 1287.41 1041.06 1304.94 1058.59L1314.56 1048.97Z"/><path d="M1402.22 1019.75C1409.78 1012.19 1414.25 1001.88 1414.25 990.531 1414.25 979.188 1409.78 968.875 1402.22 961.313L1392.59 970.938C1397.41 975.75 1400.5 982.625 1400.5 990.531 1400.5 998.438 1397.41 1004.97 1392.59 1010.13L1402.22 1019.75Z"/><path d="M1411.84 1029.38 1421.47 1039C1434.19 1026.63 1441.75 1009.44 1441.75 990.531 1441.75 971.625 1434.19 954.438 1421.47 942.063L1411.84 951.688C1421.81 961.656 1428 975.406 1428 990.531 1428 1005.66 1421.81 1019.41 1411.84 1029.38Z"/><path d="M1431.44 1048.97 1441.06 1058.59C1458.59 1041.06 1469.25 1017 1469.25 990.531 1469.25 964.063 1458.59 940 1441.06 922.469L1431.44 932.094C1446.22 946.875 1455.5 967.5 1455.5 990.531 1455.5 1013.56 1446.22 1033.84 1431.44 1048.97Z"/><path d="M1462.37 1128.03C1458.59 1128.03 1455.5 1124.94 1455.5 1121.16 1455.5 1117.38 1458.59 1114.28 1462.37 1114.28 1466.16 1114.28 1469.25 1117.38 1469.25 1121.16 1469.25 1124.94 1466.16 1128.03 1462.37 1128.03ZM1428 1128.03C1424.22 1128.03 1421.12 1124.94 1421.12 1121.16 1421.12 1117.38 1424.22 1114.28 1428 1114.28 1431.78 1114.28 1434.87 1117.38 1434.87 1121.16 1434.87 1124.94 1431.78 1128.03 1428 1128.03ZM1393.62 1128.03C1389.84 1128.03 1386.75 1124.94 1386.75 1121.16 1386.75 1117.38 1389.84 1114.28 1393.62 1114.28 1397.41 1114.28 1400.5 1117.38 1400.5 1121.16 1400.5 1124.94 1397.41 1128.03 1393.62 1128.03ZM1359.25 1128.03C1355.47 1128.03 1352.37 1124.94 1352.37 1121.16 1352.37 1117.38 1355.47 1114.28 1359.25 1114.28 1363.03 1114.28 1366.12 1117.38 1366.12 1121.16 1366.12 1124.94 1363.03 1128.03 1359.25 1128.03ZM1290.5 1134.91C1282.94 1134.91 1276.75 1128.72 1276.75 1121.16 1276.75 1113.59 1282.94 1107.41 1290.5 1107.41 1298.06 1107.41 1304.25 1113.59 1304.25 1121.16 1304.25 1128.72 1298.06 1134.91 1290.5 1134.91ZM1476.12 1086.78 1379.87 1086.78 1379.87 1002.22C1384 999.813 1386.75 995.344 1386.75 990.531 1386.75 982.969 1380.56 976.781 1373 976.781 1365.44 976.781 1359.25 982.969 1359.25 990.531 1359.25 995.688 1362 1000.16 1366.12 1002.22L1366.12 1086.78 1269.87 1086.78C1262.31 1086.78 1256.12 1092.97 1256.12 1100.53L1256.12 1141.78C1256.12 1149.34 1262.31 1155.53 1269.87 1155.53L1476.12 1155.53C1483.69 1155.53 1489.87 1149.34 1489.87 1141.78L1489.87 1100.53C1489.87 1092.97 1483.69 1086.78 1476.12 1086.78Z"/></g></g></g><g clip-path="url(#clip4)"><g clip-path="url(#clip5)"><g clip-path="url(#clip6)"><path d="M1196.25 1483.25 1003.75 1483.25 1003.75 1366.38 1196.25 1366.38 1196.25 1483.25ZM1216.88 1359.5C1216.88 1351.94 1210.69 1345.75 1203.12 1345.75L996.875 1345.75C989.312 1345.75 983.125 1351.94 983.125 1359.5L983.125 1503.88 1216.88 1503.88 1216.88 1359.5Z"/><path d="M1120.62 1517.62 1120.62 1521.06C1120.62 1523.12 1119.25 1524.5 1117.19 1524.5L1082.81 1524.5C1080.75 1524.5 1079.38 1523.12 1079.38 1521.06L1079.38 1517.62 941.875 1517.62 941.875 1524.5C941.875 1532.06 948.062 1538.25 955.625 1538.25L1244.38 1538.25C1251.94 1538.25 1258.12 1532.06 1258.12 1524.5L1258.12 1517.62 1120.62 1517.62Z"/></g></g></g><g clip-path="url(#clip7)"><g clip-path="url(#clip8)"><g clip-path="url(#clip9)"><path d="M815.5 1085.37 650.5 1085.37 650.5 975.375 815.5 975.375 815.5 1085.37ZM822.375 954.75 643.625 954.75C636.062 954.75 629.875 960.937 629.875 968.5L629.875 1092.25C629.875 1099.81 636.062 1106 643.625 1106L712.375 1106 712.375 1126.62 681.437 1126.62 681.437 1147.25 784.562 1147.25 784.562 1126.62 753.625 1126.62 753.625 1106 822.375 1106C829.937 1106 836.125 1099.81 836.125 1092.25L836.125 968.5C836.125 960.937 829.937 954.75 822.375 954.75Z"/><path d="M932.375 989.125 863.625 989.125 863.625 968.5 932.375 968.5 932.375 989.125ZM932.375 1023.5 863.625 1023.5 863.625 1002.87 932.375 1002.87 932.375 1023.5ZM898 1126.62C892.156 1126.62 887.687 1122.16 887.687 1116.31 887.687 1110.47 892.156 1106 898 1106 903.844 1106 908.312 1110.47 908.312 1116.31 908.312 1122.16 903.844 1126.62 898 1126.62ZM932.375 954.75 863.625 954.75C856.062 954.75 849.875 960.937 849.875 968.5L849.875 1133.5C849.875 1141.06 856.062 1147.25 863.625 1147.25L932.375 1147.25C939.937 1147.25 946.125 1141.06 946.125 1133.5L946.125 968.5C946.125 960.937 939.937 954.75 932.375 954.75Z"/></g></g></g><g clip-path="url(#clip10)"><g clip-path="url(#clip11)"><g clip-path="url(#clip12)"><path d="M1206.88 727.625 973.125 727.625 973.125 576.375 1206.88 576.375 1206.88 727.625ZM1107.19 741.375 1072.81 741.375C1070.75 741.375 1069.38 740 1069.38 737.938 1069.38 735.875 1070.75 734.5 1072.81 734.5L1107.19 734.5C1109.25 734.5 1110.62 735.875 1110.62 737.938 1110.62 740 1109.25 741.375 1107.19 741.375ZM1090 562.625C1092.06 562.625 1093.44 564 1093.44 566.063 1093.44 568.125 1092.06 569.5 1090 569.5 1087.94 569.5 1086.56 568.125 1086.56 566.063 1086.56 564 1087.94 562.625 1090 562.625ZM1213.75 555.75 966.25 555.75C958.688 555.75 952.5 561.938 952.5 569.5L952.5 734.5C952.5 742.063 958.688 748.25 966.25 748.25L1213.75 748.25C1221.31 748.25 1227.5 742.063 1227.5 734.5L1227.5 569.5C1227.5 561.938 1221.31 555.75 1213.75 555.75Z"/></g></g></g><g clip-path="url(#clip13)"><g clip-path="url(#clip14)"><g clip-path="url(#clip15)"><path d="M62.75 176.484 188.25 176.484 188.25 226.161 62.75 226.161Z" transform="matrix(1.00398 0 0 1 1520 511)"/><path d="M172.562 100.661 172.562 126.807 78.4375 126.807 78.4375 37.9114 135.958 37.9114 135.958 74.5156 172.562 74.5156 172.562 100.661ZM151.646 38.9573 169.686 58.8281 151.646 58.8281 151.646 38.9573ZM36.6042 137.266C30.8521 137.266 26.1458 132.559 26.1458 126.807 26.1458 121.055 30.8521 116.349 36.6042 116.349 42.3562 116.349 47.0625 121.055 47.0625 126.807 47.0625 132.559 42.3562 137.266 36.6042 137.266ZM230.083 100.661 188.25 100.661 188.25 55.6906 157.659 22.224 62.75 22.224 62.75 100.661 20.9167 100.661C15.1646 100.661 10.4583 105.368 10.4583 111.12L10.4583 215.703C10.4583 221.455 15.1646 226.161 20.9167 226.161L52.2916 226.161 52.2916 166.026 198.708 166.026 198.708 226.161 230.083 226.161C235.835 226.161 240.542 221.455 240.542 215.703L240.542 111.12C240.542 105.368 235.835 100.661 230.083 100.661Z" transform="matrix(1.00398 0 0 1 1520 511)"/><path d="M88.8958 84.9739 162.104 84.9739 162.104 95.4323 88.8958 95.4323Z" transform="matrix(1.00398 0 0 1 1520 511)"/><path d="M88.8958 64.0573 125.5 64.0573 125.5 74.5156 88.8958 74.5156Z" transform="matrix(1.00398 0 0 1 1520 511)"/><path d="M88.8958 105.891 162.104 105.891 162.104 116.349 88.8958 116.349Z" transform="matrix(1.00398 0 0 1 1520 511)"/></g></g></g><g clip-path="url(#clip16)"><g clip-path="url(#clip17)"><g clip-path="url(#clip18)"><path d="M21.75 179.437 21.75 54.375 239.25 54.375 239.25 179.437 21.75 179.437ZM152.25 212.062 108.75 212.062 108.75 195.75 152.25 195.75 152.25 212.062ZM255.562 195.75 255.562 38.0625 5.4375 38.0625 5.4375 195.75 92.4375 195.75 92.4375 212.062 43.5 212.062C40.5094 212.062 38.0625 214.509 38.0625 217.5L38.0625 222.937 222.937 222.937 222.937 217.5C222.937 214.509 220.491 212.062 217.5 212.062L168.562 212.062 168.562 195.75 255.562 195.75Z" transform="matrix(1 0 0 1 1524 1308)"/></g></g></g><g clip-path="url(#clip19)"><g clip-path="url(#clip20)"><g clip-path="url(#clip21)"><path d="M156.75 190 71.25 190 71.25 38 156.75 38 156.75 190ZM104.5 19 123.5 19C126.112 19 128.25 21.1375 128.25 23.75 128.25 26.3625 126.112 28.5 123.5 28.5L104.5 28.5C101.887 28.5 99.75 26.3625 99.75 23.75 99.75 21.1375 101.887 19 104.5 19ZM166.25 9.5 61.75 9.5C59.1375 9.5 57 11.6375 57 14.25L57 213.75C57 216.362 59.1375 218.5 61.75 218.5L166.25 218.5C168.862 218.5 171 216.362 171 213.75L171 14.25C171 11.6375 168.862 9.5 166.25 9.5Z" transform="matrix(1 0 0 1 1746 929)"/></g></g></g><path d="M1145.5 752.5 1241.74 1058.88" stroke="#000000" stroke-width="4.58333" stroke-miterlimit="8" fill="none" fill-rule="evenodd"/><path d="M0 0 274.96 2.32379" stroke="#000000" stroke-width="4.58333" stroke-miterlimit="8" fill="none" fill-rule="evenodd" transform="matrix(1 0 0 -1 966.5 1061.82)"/><path d="M0 0 100.164 274.436" stroke="#000000" stroke-width="4.58333" stroke-miterlimit="8" fill="none" fill-rule="evenodd" transform="matrix(-1 0 0 1 1241.66 1061.5)"/><path d="M0 0 96.2359 306.383" stroke="#000000" stroke-width="4.58333" stroke-miterlimit="8" fill="none" fill-rule="evenodd" transform="matrix(-1 0 0 1 1595.74 748.5)"/><path d="M1774.46 1057.82 1499.5 1055.5" stroke="#000000" stroke-width="4.58333" stroke-miterlimit="8" fill="none" fill-rule="evenodd"/><path d="M1499.5 1057.5 1599.66 1331.94" stroke="#000000" stroke-width="4.58333" stroke-miterlimit="8" fill="none" fill-rule="evenodd"/></g></svg>