<svg xmlns="http://www.w3.org/2000/svg" xmlns:xlink="http://www.w3.org/1999/xlink" width="1380" height="764" viewBox="1962 523 1380 764">
  <defs>
    <style>
      .cls-1 {
        clip-path: url(#clip-Web_1920_1);
      }

      .cls-2, .cls-6 {
        fill: none;
      }

      .cls-2, .cls-3 {
        stroke: #bda0a0;
      }

      .cls-2 {
        stroke-width: 5px;
      }

      .cls-3, .cls-4 {
        fill: #bda0a0;
      }

      .cls-5, .cls-7 {
        stroke: none;
      }

      .cls-7 {
        fill: #bda0a0;
      }

      .cls-8 {
        fill: #fff;
      }
    </style>
    <clipPath id="clip-Web_1920_1">
      <rect x="1962" y="523" width="1380" height="764"/>
    </clipPath>
  </defs>
  <g id="Web_1920_1" data-name="Web 1920 – 1" class="cls-1">
    <rect class="cls-8" x="1962" y="523" width="1380" height="764"/>
    <g id="Group_1" data-name="Group 1" transform="translate(1692.053 352.5)">
      <line id="Line_1" data-name="Line 1" class="cls-2" y1="618" x2="591.5" transform="translate(368.5 229.5)"/>
      <line id="Line_2" data-name="Line 2" class="cls-2" x1="590.5" y1="615" transform="translate(960 229.5)"/>
      <g id="Ellipse_1" data-name="Ellipse 1" class="cls-3" transform="translate(1133 413)">
        <circle class="cls-5" cx="17.5" cy="17.5" r="17.5"/>
        <circle class="cls-6" cx="17.5" cy="17.5" r="17"/>
      </g>
      <g id="Ellipse_4" data-name="Ellipse 4" class="cls-3" transform="translate(1340 625)">
        <circle class="cls-5" cx="17.5" cy="17.5" r="17.5"/>
        <circle class="cls-6" cx="17.5" cy="17.5" r="17"/>
      </g>
      <g id="Ellipse_3" data-name="Ellipse 3" class="cls-3" transform="translate(547 625)">
        <circle class="cls-5" cx="17.5" cy="17.5" r="17.5"/>
        <circle class="cls-6" cx="17.5" cy="17.5" r="17"/>
      </g>
      <g id="Ellipse_2" data-name="Ellipse 2" class="cls-3" transform="translate(751 413)">
        <circle class="cls-5" cx="17.5" cy="17.5" r="17.5"/>
        <circle class="cls-6" cx="17.5" cy="17.5" r="17"/>
      </g>
      <g id="Ellipse_5" data-name="Ellipse 5" class="cls-3" transform="translate(786 625)">
        <circle class="cls-5" cx="17.5" cy="17.5" r="17.5"/>
        <circle class="cls-6" cx="17.5" cy="17.5" r="17"/>
      </g>
      <g id="Ellipse_6" data-name="Ellipse 6" class="cls-3" transform="translate(1098 625)">
        <circle class="cls-5" cx="17.5" cy="17.5" r="17.5"/>
        <circle class="cls-6" cx="17.5" cy="17.5" r="17"/>
      </g>
      <g id="Path_1" data-name="Path 1" class="cls-4" transform="translate(339.947 837.405) rotate(-14)">
        <path class="cls-5" d="M 34.12255477905273 29.03467559814453 L 0.877444326877594 29.03467559814453 L 17.5 0.9808552265167236 L 34.12255477905273 29.03467559814453 Z"/>
        <path class="cls-7" d="M 17.5 1.961713790893555 L 1.754890441894531 28.53467559814453 L 33.24510955810547 28.53467559814453 L 17.5 1.961713790893555 M 17.5 -3.814697265625e-06 L 35 29.53467559814453 L 0 29.53467559814453 L 17.5 -3.814697265625e-06 Z"/>
      </g>
      <g id="Path_7" data-name="Path 7" class="cls-4" transform="translate(772.679 389.048) rotate(-13)">
        <path class="cls-5" d="M 34.12255477905273 29.03467559814453 L 0.877444326877594 29.03467559814453 L 17.5 0.9808552265167236 L 34.12255477905273 29.03467559814453 Z"/>
        <path class="cls-7" d="M 17.5 1.961713790893555 L 1.754890441894531 28.53467559814453 L 33.24510955810547 28.53467559814453 L 17.5 1.961713790893555 M 17.5 -3.814697265625e-06 L 35 29.53467559814453 L 0 29.53467559814453 L 17.5 -3.814697265625e-06 Z"/>
      </g>
      <g id="Path_9" data-name="Path 9" class="cls-4" transform="translate(569.679 601.048) rotate(-13)">
        <path class="cls-5" d="M 34.12255477905273 29.03467559814453 L 0.877444326877594 29.03467559814453 L 17.5 0.9808552265167236 L 34.12255477905273 29.03467559814453 Z"/>
        <path class="cls-7" d="M 17.5 1.961713790893555 L 1.754890441894531 28.53467559814453 L 33.24510955810547 28.53467559814453 L 17.5 1.961713790893555 M 17.5 -3.814697265625e-06 L 35 29.53467559814453 L 0 29.53467559814453 L 17.5 -3.814697265625e-06 Z"/>
      </g>
      <g id="Path_10" data-name="Path 10" class="cls-4" transform="translate(801.116 581.704) rotate(50)">
        <path class="cls-5" d="M 34.12255477905273 29.03467559814453 L 0.877444326877594 29.03467559814453 L 17.5 0.9808552265167236 L 34.12255477905273 29.03467559814453 Z"/>
        <path class="cls-7" d="M 17.5 1.961713790893555 L 1.754890441894531 28.53467559814453 L 33.24510955810547 28.53467559814453 L 17.5 1.961713790893555 M 17.5 -3.814697265625e-06 L 35 29.53467559814453 L 0 29.53467559814453 L 17.5 -3.814697265625e-06 Z"/>
      </g>
      <g id="Path_8" data-name="Path 8" class="cls-4" transform="matrix(0.966, 0.259, -0.259, 0.966, 1113.971, 379.144)">
        <path class="cls-5" d="M 34.12255477905273 29.03467559814453 L 0.877444326877594 29.03467559814453 L 17.5 0.9808552265167236 L 34.12255477905273 29.03467559814453 Z"/>
        <path class="cls-7" d="M 17.5 1.961713790893555 L 1.754890441894531 28.53467559814453 L 33.24510955810547 28.53467559814453 L 17.5 1.961713790893555 M 17.5 -3.814697265625e-06 L 35 29.53467559814453 L 0 29.53467559814453 L 17.5 -3.814697265625e-06 Z"/>
      </g>
      <g id="Path_11" data-name="Path 11" class="cls-4" transform="translate(1134.318 582.291) rotate(71)">
        <path class="cls-5" d="M 34.12255477905273 29.03467559814453 L 0.877444326877594 29.03467559814453 L 17.5 0.9808552265167236 L 34.12255477905273 29.03467559814453 Z"/>
        <path class="cls-7" d="M 17.5 1.961713790893555 L 1.754890441894531 28.53467559814453 L 33.24510955810547 28.53467559814453 L 17.5 1.961713790893555 M 17.5 -3.814697265625e-06 L 35 29.53467559814453 L 0 29.53467559814453 L 17.5 -3.814697265625e-06 Z"/>
      </g>
      <g id="Path_12" data-name="Path 12" class="cls-4" transform="translate(1357.5 618.522) rotate(132)">
        <path class="cls-5" d="M 34.12255477905273 29.03467559814453 L 0.877444326877594 29.03467559814453 L 17.5 0.9808552265167236 L 34.12255477905273 29.03467559814453 Z"/>
        <path class="cls-7" d="M 17.5 1.961713790893555 L 1.754890441894531 28.53467559814453 L 33.24510955810547 28.53467559814453 L 17.5 1.961713790893555 M 17.5 -3.814697265625e-06 L 35 29.53467559814453 L 0 29.53467559814453 L 17.5 -3.814697265625e-06 Z"/>
      </g>
      <g id="Path_3" data-name="Path 3" class="cls-4" transform="translate(571.892 864.096) rotate(-66)">
        <path class="cls-5" d="M 34.12255477905273 29.03467559814453 L 0.877444326877594 29.03467559814453 L 17.5 0.9808552265167236 L 34.12255477905273 29.03467559814453 Z"/>
        <path class="cls-7" d="M 17.5 1.961713790893555 L 1.754890441894531 28.53467559814453 L 33.24510955810547 28.53467559814453 L 17.5 1.961713790893555 M 17.5 -3.814697265625e-06 L 35 29.53467559814453 L 0 29.53467559814453 L 17.5 -3.814697265625e-06 Z"/>
      </g>
      <g id="Path_4" data-name="Path 4" class="cls-4" transform="translate(813.892 864.096) rotate(-66)">
        <path class="cls-5" d="M 34.12255477905273 29.03467559814453 L 0.877444326877594 29.03467559814453 L 17.5 0.9808552265167236 L 34.12255477905273 29.03467559814453 Z"/>
        <path class="cls-7" d="M 17.5 1.961713790893555 L 1.754890441894531 28.53467559814453 L 33.24510955810547 28.53467559814453 L 17.5 1.961713790893555 M 17.5 -3.814697265625e-06 L 35 29.53467559814453 L 0 29.53467559814453 L 17.5 -3.814697265625e-06 Z"/>
      </g>
      <g id="Path_5" data-name="Path 5" class="cls-4" transform="translate(1053.021 857.522) rotate(-51)">
        <path class="cls-5" d="M 34.12255477905273 29.03467559814453 L 0.877444326877594 29.03467559814453 L 17.5 0.9808552265167236 L 34.12255477905273 29.03467559814453 Z"/>
        <path class="cls-7" d="M 17.5 1.961713790893555 L 1.754890441894531 28.53467559814453 L 33.24510955810547 28.53467559814453 L 17.5 1.961713790893555 M 17.5 -3.814697265625e-06 L 35 29.53467559814453 L 0 29.53467559814453 L 17.5 -3.814697265625e-06 Z"/>
      </g>
      <g id="Path_6" data-name="Path 6" class="cls-4" transform="translate(1300.021 855.322) rotate(-51)">
        <path class="cls-5" d="M 34.12255477905273 29.03467559814453 L 0.877444326877594 29.03467559814453 L 17.5 0.9808552265167236 L 34.12255477905273 29.03467559814453 Z"/>
        <path class="cls-7" d="M 17.5 1.961713790893555 L 1.754890441894531 28.53467559814453 L 33.24510955810547 28.53467559814453 L 17.5 1.961713790893555 M 17.5 -3.814697265625e-06 L 35 29.53467559814453 L 0 29.53467559814453 L 17.5 -3.814697265625e-06 Z"/>
      </g>
      <g id="Path_2" data-name="Path 2" class="cls-4" transform="matrix(0.956, 0.292, -0.292, 0.956, 1546.135, 828.122)">
        <path class="cls-5" d="M 34.12255477905273 29.03467559814453 L 0.877444326877594 29.03467559814453 L 17.5 0.9808552265167236 L 34.12255477905273 29.03467559814453 Z"/>
        <path class="cls-7" d="M 17.5 1.961713790893555 L 1.754890441894531 28.53467559814453 L 33.24510955810547 28.53467559814453 L 17.5 1.961713790893555 M 17.5 -3.814697265625e-06 L 35 29.53467559814453 L 0 29.53467559814453 L 17.5 -3.814697265625e-06 Z"/>
      </g>
      <line id="Line_3" data-name="Line 3" class="cls-2" x2="70" y2="417" transform="translate(768.5 430.5)"/>
      <line id="Line_5" data-name="Line 5" class="cls-2" x1="70" y2="417" transform="translate(1080.5 430.5)"/>
      <line id="Line_4" data-name="Line 4" class="cls-2" x2="31" y2="205" transform="translate(564.5 642.5)"/>
      <line id="Line_6" data-name="Line 6" class="cls-2" x1="31" y2="205" transform="translate(1326.5 639)"/>
    </g>
  </g>
</svg>
