<svg width="19" height="19" xmlns="http://www.w3.org/2000/svg" xmlns:xlink="http://www.w3.org/1999/xlink" overflow="hidden"><defs><clipPath id="clip0"><rect x="0" y="0" width="19" height="19"/></clipPath></defs><g clip-path="url(#clip0)"><path d="M9.5 17.8125C4.90913 17.8125 1.1875 14.0909 1.1875 9.5 1.1875 4.90913 4.90913 1.1875 9.5 1.1875 14.0909 1.1875 17.8125 4.90913 17.8125 9.5 17.8125 14.0909 14.0909 17.8125 9.5 17.8125ZM9.5 19C14.7467 19 19 14.7467 19 9.5 19 4.25329 14.7467-2.10942e-15 9.5-2.10942e-15 4.25329-2.10942e-15-2.10942e-15 4.25329 0 9.5 0 14.7467 4.25329 19 9.5 19Z"/><path d="M5.51713 5.51713C5.7487 5.28496 6.12465 5.28448 6.35681 5.51606 6.35717 5.51642 6.35752 5.51677 6.35787 5.51713L9.5 8.66044 12.6421 5.51713C12.8743 5.28496 13.2507 5.28496 13.4829 5.51713 13.715 5.74929 13.715 6.12571 13.4829 6.35787L10.3396 9.5 13.4829 12.6421C13.715 12.8743 13.715 13.2507 13.4829 13.4829 13.2507 13.715 12.8743 13.715 12.6421 13.4829L9.5 10.3396 6.35787 13.4829C6.12571 13.715 5.74929 13.715 5.51713 13.4829 5.28496 13.2507 5.28496 12.8743 5.51713 12.6421L8.66044 9.5 5.51713 6.35787C5.28496 6.1263 5.28448 5.75035 5.51606 5.51819 5.51642 5.51783 5.51677 5.51748 5.51713 5.51713Z"/></g></svg>