<svg width="24" height="24" xmlns="http://www.w3.org/2000/svg" xmlns:xlink="http://www.w3.org/1999/xlink" overflow="hidden"><defs><clipPath id="clip0"><rect x="212" y="181" width="24" height="24"/></clipPath></defs><g clip-path="url(#clip0)" transform="translate(-212 -181)"><path d="M224 185.5C224.414 185.5 224.75 185.836 224.75 186.25L224.75 189.25C224.75 189.664 224.414 190 224 190 223.586 190 223.25 189.664 223.25 189.25L223.25 186.25C223.25 185.836 223.586 185.5 224 185.5ZM236 197.5C236 197.914 235.664 198.25 235.25 198.25L232.25 198.25C231.836 198.25 231.5 197.914 231.5 197.5 231.5 197.086 231.836 196.75 232.25 196.75L235.25 196.75C235.664 196.75 236 197.086 236 197.5ZM215.75 198.25C216.164 198.25 216.5 197.914 216.5 197.5 216.5 197.086 216.164 196.75 215.75 196.75L212.75 196.75C212.336 196.75 212 197.086 212 197.5 212 197.914 212.336 198.25 212.75 198.25L215.75 198.25ZM232.486 189.014C232.778 189.307 232.778 189.782 232.486 190.075L230.365 192.196C230.077 192.494 229.602 192.502 229.304 192.214 229.006 191.927 228.998 191.452 229.286 191.154 229.292 191.148 229.298 191.142 229.304 191.135L231.425 189.014C231.718 188.722 232.193 188.722 232.486 189.014ZM217.635 192.196C217.933 192.484 218.408 192.476 218.696 192.178 218.977 191.887 218.977 191.426 218.696 191.135L216.575 189.014C216.287 188.717 215.812 188.708 215.514 188.996 215.217 189.284 215.208 189.759 215.496 190.057 215.502 190.063 215.508 190.069 215.514 190.075L217.635 192.196ZM224 191.5C220.686 191.5 218 194.186 218 197.5 218 197.914 218.336 198.25 218.75 198.25L229.25 198.25C229.664 198.25 230 197.914 230 197.5 230 194.186 227.314 191.5 224 191.5ZM224 193C226.196 192.999 228.072 194.584 228.439 196.75L219.56 196.75C219.926 194.584 221.803 192.999 224 193Z"/></g></svg>