<svg width="48" height="48" xmlns="http://www.w3.org/2000/svg" xmlns:xlink="http://www.w3.org/1999/xlink" overflow="hidden"><defs><clipPath id="clip0"><rect x="192" y="96" width="48" height="48"/></clipPath></defs><g clip-path="url(#clip0)" transform="translate(-192 -96)"><path d="M228.5 119.5C227.65 119.5 227 118.85 227 118 227 117.15 227.65 116.5 228.5 116.5 229.35 116.5 230 117.15 230 118 230 118.85 229.35 119.5 228.5 119.5ZM225.5 122.5C224.65 122.5 224 121.85 224 121 224 120.15 224.65 119.5 225.5 119.5 226.35 119.5 227 120.15 227 121 227 121.85 226.35 122.5 225.5 122.5ZM222.5 119.5C221.65 119.5 221 118.85 221 118 221 117.15 221.65 116.5 222.5 116.5 223.35 116.5 224 117.15 224 118 224 118.85 223.35 119.5 222.5 119.5ZM225.5 113.5C226.35 113.5 227 114.15 227 115 227 115.85 226.35 116.5 225.5 116.5 224.65 116.5 224 115.85 224 115 224 114.15 224.65 113.5 225.5 113.5ZM209.5 119 207.5 119 207.5 121C207.5 121.55 207.05 122 206.5 122 205.95 122 205.5 121.55 205.5 121L205.5 119 203.5 119C202.95 119 202.5 118.55 202.5 118 202.5 117.45 202.95 117 203.5 117L205.5 117 205.5 115C205.5 114.45 205.95 114 206.5 114 207.05 114 207.5 114.45 207.5 115L207.5 117 209.5 117C210.05 117 210.5 117.45 210.5 118 210.5 118.55 210.05 119 209.5 119ZM227.5 106C221.6 106 224.6 109 216 109 207.4 109 210.4 106 204.5 106 198.2 106 190.2 134 198.5 134 206.15 134 203.25 127 216 127 228.75 127 225.85 134 233.5 134 241.8 134 233.8 106 227.5 106Z"/></g></svg>