<svg width="48" height="48" xmlns="http://www.w3.org/2000/svg" xmlns:xlink="http://www.w3.org/1999/xlink" overflow="hidden"><defs><clipPath id="clip0"><rect x="96" y="96" width="48" height="48"/></clipPath></defs><g clip-path="url(#clip0)" transform="translate(-96 -96)"><path d="M131.5 107C132.65 107 134.783 108.873 136.994 114.152 138.854 118.592 140.056 123.919 140.056 127.723 140.056 130.13 139.613 133 137.5 133 134.576 133 133.513 131.934 132.042 130.458 130.063 128.471 127.6 126 120 126 112.4 126 109.937 128.471 107.958 130.458 106.486 131.934 105.424 133 102.5 133 101.691 133.013 100.957 132.525 100.658 131.773 100.12 130.493 99.876 129.109 99.9435 127.723 99.9435 123.919 101.144 118.592 103.006 114.152 105.217 108.873 107.35 107 108.5 107 110.85 107 111.514 107.484 112.356 108.1 113.582 108.99 114.971 110 120 110 125.029 110 126.418 108.99 127.644 108.1 128.486 107.484 129.15 107 131.5 107M131.5 106C125.6 106 128.6 109 120 109 111.4 109 114.4 106 108.5 106 102.2 106 94.2 134 102.5 134 110.15 134 107.25 127 120 127 132.75 127 129.85 134 137.5 134 145.8 134 137.8 106 131.5 106Z" fill="#FFFFFF"/><path d="M133 118C133 118.552 132.552 119 132 119 131.448 119 131 118.552 131 118 131 117.448 131.448 117 132 117 132.552 117 133 117.448 133 118Z" fill="#FFFFFF"/><path d="M130 121C130 121.552 129.552 122 129 122 128.448 122 128 121.552 128 121 128 120.448 128.448 120 129 120 129.552 120 130 120.448 130 121Z" fill="#FFFFFF"/><path d="M127 118C127 118.552 126.552 119 126 119 125.448 119 125 118.552 125 118 125 117.448 125.448 117 126 117 126.552 117 127 117.448 127 118Z" fill="#FFFFFF"/><path d="M130 115C130 115.552 129.552 116 129 116 128.448 116 128 115.552 128 115 128 114.448 128.448 114 129 114 129.552 114 130 114.448 130 115Z" fill="#FFFFFF"/><path d="M114.5 117.5 111.5 117.5 111.5 114.5C111.5 114.224 111.276 114 111 114 110.724 114 110.5 114.224 110.5 114.5L110.5 117.5 107.5 117.5C107.224 117.5 107 117.724 107 118 107 118.276 107.224 118.5 107.5 118.5L110.5 118.5 110.5 121.5C110.5 121.776 110.724 122 111 122 111.276 122 111.5 121.776 111.5 121.5L111.5 118.5 114.5 118.5C114.776 118.5 115 118.276 115 118 115 117.724 114.776 117.5 114.5 117.5Z" fill="#FFFFFF"/></g></svg>