<svg width="24" height="24" xmlns="http://www.w3.org/2000/svg" xmlns:xlink="http://www.w3.org/1999/xlink" overflow="hidden"><defs><clipPath id="clip0"><rect x="96" y="98" width="24" height="24"/></clipPath></defs><g clip-path="url(#clip0)" transform="translate(-96 -98)"><path d="M108 114.5C105.515 114.5 103.5 112.485 103.5 110 103.5 107.515 105.515 105.5 108 105.5 110.485 105.5 112.5 107.515 112.5 110 112.5 112.485 110.485 114.5 108 114.5ZM108 116C111.314 116 114 113.314 114 110 114 106.686 111.314 104 108 104 104.686 104 102 106.686 102 110 102 113.314 104.686 116 108 116ZM108 98C108.414 98 108.75 98.3358 108.75 98.75L108.75 101.75C108.75 102.164 108.414 102.5 108 102.5 107.586 102.5 107.25 102.164 107.25 101.75L107.25 98.75C107.25 98.3358 107.586 98 108 98ZM108 117.5C108.414 117.5 108.75 117.836 108.75 118.25L108.75 121.25C108.75 121.664 108.414 122 108 122 107.586 122 107.25 121.664 107.25 121.25L107.25 118.25C107.25 117.836 107.586 117.5 108 117.5ZM120 110C120 110.414 119.664 110.75 119.25 110.75L116.25 110.75C115.836 110.75 115.5 110.414 115.5 110 115.5 109.586 115.836 109.25 116.25 109.25L119.25 109.25C119.664 109.25 120 109.586 120 110ZM100.5 110C100.5 110.414 100.164 110.75 99.75 110.75L96.75 110.75C96.3358 110.75 96 110.414 96 110 96 109.586 96.3358 109.25 96.75 109.25L99.75 109.25C100.164 109.25 100.5 109.586 100.5 110ZM116.486 101.515C116.778 101.807 116.778 102.282 116.486 102.575L114.365 104.698C114.071 104.99 113.596 104.99 113.303 104.697 113.01 104.403 113.011 103.928 113.304 103.635L115.425 101.515C115.718 101.222 116.193 101.222 116.486 101.515ZM102.696 115.304C102.989 115.597 102.989 116.072 102.696 116.365L100.575 118.486C100.277 118.773 99.8023 118.765 99.5145 118.467 99.2338 118.176 99.2338 117.716 99.5145 117.425L101.635 115.304C101.928 115.011 102.403 115.011 102.696 115.304ZM116.486 118.486C116.193 118.778 115.718 118.778 115.425 118.486L113.304 116.365C113.016 116.067 113.024 115.592 113.322 115.304 113.613 115.023 114.074 115.023 114.365 115.304L116.486 117.425C116.778 117.718 116.778 118.193 116.486 118.486ZM102.696 104.698C102.403 104.99 101.928 104.99 101.635 104.698L99.5145 102.575C99.2166 102.287 99.2083 101.812 99.4961 101.515 99.7838 101.217 100.259 101.208 100.557 101.496 100.563 101.502 100.569 101.508 100.575 101.515L102.696 103.635C102.989 103.928 102.99 104.403 102.697 104.696 102.697 104.697 102.696 104.697 102.696 104.698Z"/></g></svg>