<svg width="624" height="624" xmlns="http://www.w3.org/2000/svg" xmlns:xlink="http://www.w3.org/1999/xlink" overflow="hidden"><defs><clipPath id="clip0"><rect x="0" y="0" width="624" height="624"/></clipPath></defs><g clip-path="url(#clip0)"><path d="M319.8 572 317.2 572C245.166 571.451 176.385 541.933 126.36 490.1 31.2503 388.391 28.3324 231.271 119.6 126.1 147.989 94.2849 183.678 69.838 223.6 54.86 233.113 51.1991 243.889 53.4355 251.16 60.58 257.878 67.431 260.277 77.426 257.4 86.58 228.31 166.25 247.975 255.558 307.84 315.64 368.245 375.303 457.568 394.928 537.42 366.08 550.965 361.312 565.81 368.428 570.578 381.972 572.591 387.691 572.542 393.934 570.44 399.62 557.158 435.077 536.41 467.264 509.6 494 459.232 544.218 390.925 572.289 319.8 572Z" stroke="#000000" stroke-width="13.3333" fill="none" transform="matrix(-1 0 0 1 624 0)"/></g></svg>