<svg width="96" height="96" xmlns="http://www.w3.org/2000/svg" xmlns:xlink="http://www.w3.org/1999/xlink" overflow="hidden"><defs><clipPath id="clip0"><rect x="143" y="103" width="96" height="96"/></clipPath></defs><g clip-path="url(#clip0)" transform="translate(-143 -103)"><path d="M147 148 165 148 165 154 147 154Z" fill="#FFFFFF"/><path d="M217 148 235 148 235 154 217 154Z" fill="#FFFFFF"/><path d="M213 151C213 163.15 203.15 173 191 173 178.85 173 169 163.15 169 151 169 138.85 178.85 129 191 129 203.15 129 213 138.85 213 151Z" fill="#FFFFFF"/><path d="M188 177 194 177 194 195 188 195Z" fill="#FFFFFF"/><path d="M188 107 194 107 194 125 188 125Z" fill="#FFFFFF"/><path d="M174.687 171.454 161.96 184.181 157.717 179.939 170.445 167.211Z" fill="#FFFFFF"/><path d="M224.283 122.059 211.555 134.786 207.312 130.544 220.04 117.816Z" fill="#FFFFFF"/><path d="M174.785 130.445 170.542 134.688 157.815 121.96 162.057 117.718Z" fill="#FFFFFF"/><path d="M224.184 180.038 219.941 184.281 207.213 171.553 211.456 167.31Z" fill="#FFFFFF"/></g></svg>