<svg width="624" height="624" xmlns="http://www.w3.org/2000/svg" xmlns:xlink="http://www.w3.org/1999/xlink" overflow="hidden"><defs><clipPath id="clip0"><rect x="0" y="0" width="624" height="624"/></clipPath></defs><g clip-path="url(#clip0)"><path d="M499.246 113.733C507.613 113.733 511.834 123.809 505.815 129.626L487.206 148.273C478.469 157.431 464.962 143.868 474.102 135.133L492.711 116.45C494.437 114.65 496.73 113.733 499.246 113.733ZM123.376 113.733C115.007 113.733 110.786 123.809 116.805 129.626L135.415 148.273C144.151 157.431 157.658 143.868 148.518 135.133L129.91 116.449C128.204 114.669 125.909 113.733 123.376 113.733ZM527.435 311.063C527.418 305.89 531.599 301.683 536.772 301.666 536.791 301.666 536.811 301.666 536.831 301.666L574.418 301.666C579.63 301.666 583.814 305.85 583.814 311.063 583.814 316.276 579.63 320.46 574.418 320.46L536.831 320.46C531.657 320.475 527.45 316.294 527.435 311.119 527.435 311.101 527.435 311.082 527.435 311.063ZM38.8057 311.063C38.7904 305.889 42.9729 301.681 48.1476 301.666 48.1659 301.666 48.1843 301.666 48.2027 301.666L85.7896 301.666C91.0022 301.666 95.1862 305.85 95.1862 311.063 95.1862 316.276 91.001 320.46 85.7896 320.46L48.2027 320.46C43.0281 320.475 38.8209 316.293 38.8057 311.118 38.8056 311.1 38.8056 311.082 38.8057 311.063ZM311.311 527.189C316.484 527.172 320.691 531.352 320.708 536.525 320.708 536.545 320.708 536.564 320.708 536.585L320.708 574.171C320.708 579.384 316.524 583.568 311.311 583.568 306.098 583.568 301.914 579.384 301.914 574.171L301.914 536.585C301.898 531.412 306.078 527.204 311.252 527.189 311.271 527.189 311.291 527.189 311.311 527.189ZM311.311 38.558C316.485 38.5428 320.693 42.7253 320.708 47.8999 320.708 47.9183 320.708 47.9367 320.708 47.955L320.708 85.5416C320.708 90.7548 316.524 94.9388 311.311 94.9388 306.098 94.9388 301.914 90.7548 301.914 85.5416L301.914 47.955C301.898 42.7804 306.081 38.5733 311.255 38.558 311.274 38.558 311.293 38.558 311.311 38.558ZM311.311 132.526C212.828 132.526 132.773 212.582 132.773 311.063 132.773 409.544 212.829 489.601 311.311 489.601 409.792 489.601 489.849 409.544 489.849 311.063 489.849 212.582 409.794 132.526 311.311 132.526ZM311.311 151.319C399.644 151.319 471.056 222.731 471.056 311.063 471.056 399.395 399.644 470.808 311.311 470.808 222.978 470.808 151.567 399.397 151.567 311.063 151.567 222.73 222.978 151.319 311.311 151.319ZM499.246 508.395C507.613 508.395 511.834 498.319 505.815 492.501L487.206 473.854C478.469 464.697 464.962 478.258 474.102 486.995L492.711 505.679C494.437 507.477 496.73 508.395 499.246 508.395ZM123.376 508.395C115.007 508.395 110.786 498.319 116.805 492.501L135.415 473.854C144.151 464.697 157.658 478.258 148.518 486.995L129.908 505.679C128.184 507.477 125.89 508.395 123.376 508.395Z" fill="#FFFFFF"/></g></svg>